<svg width="366" height="222" viewBox="0 0 366 222" fill="none" xmlns="http://www.w3.org/2000/svg">
<path d="M34 0.499998C34 0.749998 33.1 0.999998 32 0.999998C30.9 0.999998 30 1.2 30 1.5C30 1.75 29.45 2 28.75 2C28.05 2 27.5 2.2 27.5 2.5C27.5 2.75 27.2 3 26.85 3C25.95 3 23.5 4.2 23.5 4.6C23.5 4.85 23.05 5 22.5 5C21.95 5 21.5 5.2 21.5 5.4C21.5 5.65 20.9 6.15 20.15 6.55C18.75 7.25 16.15 9.45 13.3 12.3C10.6 15 7 19 7 19.3C7 19.45 6.35 20.55 5.5 21.75C4.7 22.95 4 24.15 4 24.45C4 24.75 3.8 25 3.5 25C3.25 25 3 25.35 3 25.75C3 26.15 2.8 26.95 2.5 27.5C2.25 28.05 1.8 28.95 1.5 29.5C1.2 30.05 1 31.05 1 31.75C1 32.45 0.8 33 0.5 33C0.2 33 0 35.9 0 40.75C0 45.6 0.2 48.5 0.5 48.5C0.8 48.5 1 49 1 49.6C1 50.25 1.45 51.3 2 52C2.55 52.7 3 53.45 3 53.65C3 54.4 5.9 57 6.7 57C7.15 57 7.5 57.2 7.5 57.5C7.5 57.75 8.2 58 9 58C9.85 58 10.5 58.2 10.5 58.5C10.5 59.1 16.2 59.15 17.4 58.55C17.85 58.3 18.95 57.8 19.75 57.45C21.3 56.8 29.5 48.85 29.5 48.05C29.5 47.75 30.2 46.5 31.05 45.25C32.7 42.8 32.55 41.45 30.7 42.4C30.15 42.65 29.1 43.15 28.25 43.5C27.45 43.85 26.35 44.3 25.9 44.55C25.4 44.8 24.6 45 24.1 45C23.6 45 22.95 45.25 22.65 45.55C22.4 45.8 21.05 46 19.7 45.9L17.25 45.75L17.1 42.6C17 40.7 17.15 39.5 17.5 39.5C17.75 39.5 18 38.95 18 38.25C18 37.55 18.25 37 18.5 37C18.8 37 19 36.45 19 35.75C19 35.05 19.25 34.5 19.5 34.5C19.8 34.5 20 34.05 20 33.5C20 32.95 20.15 32.5 20.4 32.5C20.6 32.5 21.1 31.75 21.45 30.85C23.7 25.8 32.7 15 34.7 15C35.15 15 35.5 14.75 35.5 14.5C35.5 14.2 36.05 14 36.75 14C37.45 14 38 13.75 38 13.5C38 13.2 38.9 13 39.95 13C41.05 13 42.1 13.2 42.25 13.5C42.4 13.75 43 14 43.55 14C44.15 14 44.9 14.6 45.4 15.5C45.85 16.3 46.4 17 46.65 17C46.85 17 47 17.8 47 18.75C47 19.7 47.25 20.5 47.5 20.5C47.8 20.5 48 21.6 48 23C48 24.35 47.8 25.5 47.5 25.5C47.2 25.5 47 26.85 47 28.5C47 30.15 46.8 31.5 46.5 31.5C46.25 31.5 46 32.25 46 33.2C46 34.15 45.8 35.1 45.5 35.25C45.25 35.4 45 36.1 45 36.8C45 37.45 44.8 38 44.5 38C44.25 38 44 38.35 44 38.75C44 39.15 43.8 39.5 43.5 39.5C43.25 39.5 43 39.8 43 40.15C43 40.5 42.55 41.3 42 41.9C41.45 42.5 41 43.2 41 43.55C41 43.85 40.6 44.5 40.1 44.95C39.65 45.4 38.95 46.35 38.55 47.1C38.15 47.9 37.65 48.5 37.4 48.5C37.2 48.5 37 48.8 37 49.1C37 49.45 36.45 50.4 35.75 51.2C35.05 52 34.5 52.85 34.5 53.05C34.5 53.25 34 53.95 33.4 54.6C32.75 55.25 31.95 56.35 31.55 57.1C31.15 57.9 30.65 58.5 30.4 58.5C30.2 58.5 30 58.8 30 59.15C30 59.5 29.55 60.3 29 60.9C28.45 61.5 28 62.15 28 62.4C28 62.6 27.6 63.25 27.15 63.8C26.65 64.3 25.95 65.35 25.55 66.1C25.15 66.9 24.65 67.5 24.4 67.5C24.2 67.5 24 67.95 24 68.5C24 69.05 23.8 69.5 23.5 69.5C23.25 69.5 23 69.85 23 70.25C23 70.65 22.8 71 22.5 71C22.25 71 22 71.35 22 71.75C22 72.15 21.8 72.5 21.6 72.5C21.35 72.5 20.9 73.3 20.5 74.25C20.1 75.2 19.65 76 19.4 76C19.2 76 19 76.35 19 76.75C19 77.15 18.8 77.5 18.5 77.5C18.25 77.5 18 77.95 18 78.5C18 79.05 17.8 79.5 17.6 79.5C17.35 79.5 16.9 80.3 16.5 81.25C16.1 82.2 15.65 83 15.4 83C15.2 83 15 83.45 15 84C15 84.55 14.8 85 14.5 85C14.25 85 14 85.45 14 85.95C14 86.5 13.75 87.1 13.5 87.25C13.2 87.4 13 88 13 88.55C13 89.05 12.8 89.5 12.5 89.5C12.25 89.5 12 89.95 12 90.5C12 91.05 11.8 91.5 11.5 91.5C11.25 91.5 11 92.05 11 92.75C11 93.45 10.8 94 10.5 94C10.25 94 10 94.65 10 95.5C10 96.3 9.8 97 9.5 97C9.25 97 9 97.8 9 98.75C9 99.7 8.8 100.5 8.5 100.5C8.2 100.5 8 103.75 8 109.25C8 114.75 8.2 118 8.5 118C8.8 118 9 118.9 9 120C9 121.1 9.25 122 9.5 122C9.8 122 10 122.55 10 123.25C10 123.95 10.25 124.5 10.5 124.5C10.8 124.5 11 124.85 11 125.25C11 125.95 11.9 127.9 12.5 128.5C12.65 128.65 13.05 129.35 13.45 130.1C14.25 131.65 14.9 132.4 17.9 135.1C19.05 136.15 20.2 137 20.5 137C20.75 137 21 137.2 21 137.5C21 137.75 21.35 138 21.75 138C22.15 138 22.5 138.2 22.5 138.5C22.5 138.75 22.85 139 23.25 139C23.65 139 24 139.2 24 139.5C24 139.75 24.55 140 25.25 140C25.95 140 26.5 140.2 26.5 140.5C26.5 140.75 27.2 141 28 141C28.85 141 29.5 141.2 29.5 141.5C29.5 141.75 30.4 142 31.5 142C32.6 142 33.5 142.2 33.5 142.5C33.5 142.8 36.5 143 41.5 143C46.5 143 49.5 142.8 49.5 142.5C49.5 142.2 50.15 142 50.95 142C51.8 142 52.6 141.8 52.75 141.5C52.9 141.2 53.6 141 54.3 141C54.95 141 55.5 140.75 55.5 140.5C55.5 140.2 55.85 140 56.25 140C56.65 140 57 139.85 57 139.6C57 139.4 57.75 138.9 58.65 138.55C59.5 138.15 60.5 137.55 60.8 137.3C61.1 137 62.1 136.2 63.05 135.5C65.8 133.55 77.65 121.45 79.45 118.85C80.3 117.55 81.25 116.5 81.5 116.5C81.8 116.5 82 116.2 82 115.85C82 115.55 82.65 114.45 83.5 113.5C84.3 112.55 85.7 110.3 86.6 108.5C87.5 106.7 88.4 105.15 88.6 105.1C88.85 105 89 104.5 89 103.95C89 103.45 89.25 103 89.5 103C89.8 103 90 102.55 90 102C90 101.45 90.25 101 90.5 101C90.8 101 91 100.65 91 100.25C91 99.85 91.45 98.75 92 97.75C92.55 96.75 93 95.65 93 95.25C93 94.85 93.25 94.5 93.5 94.5C93.8 94.5 94 94.05 94 93.55C94 93 94.25 92.4 94.5 92.25C94.8 92.1 95 91.4 95 90.7C95 90.05 95.25 89.5 95.5 89.5C95.8 89.5 96 89.05 96 88.5C96 87.95 96.25 87.5 96.5 87.5C96.8 87.5 97 86.95 97 86.3C97 85.6 97.25 84.9 97.5 84.75C97.8 84.6 98 84 98 83.45C98 82.95 98.25 82.5 98.5 82.5C98.8 82.5 99 81.8 99 81C99 80.15 99.25 79.5 99.5 79.5C99.8 79.5 100 78.95 100 78.3C100 77.6 100.2 76.9 100.5 76.75C100.8 76.6 101 75.9 101 75.2C101 74.55 101.25 74 101.5 74C101.8 74 102 73.3 102 72.5C102 71.65 102.25 71 102.5 71C102.8 71 103 70.35 103 69.55C103 68.7 103.25 67.9 103.5 67.75C103.8 67.6 104 66.8 104 66C104 65.2 104.25 64.4 104.5 64.25C104.8 64.1 105 63.15 105 62.2C105 61.25 105.25 60.5 105.5 60.5C105.8 60.5 106 59.5 106 58.25C106 57 106.25 56 106.5 56C106.8 56 107 54.75 107 53.25C107 51.75 107.25 50.5 107.5 50.5C107.8 50.5 108 48.65 108 46C108 43.35 108.2 41.5 108.5 41.5C108.8 41.5 109 40.6 109 39.55C109 38.45 108.8 37.4 108.5 37.25C108.25 37.1 108 35.95 108 34.7C108 33.5 107.8 32.5 107.5 32.5C107.25 32.5 107 32.05 107 31.5C107 30.95 106.8 30.5 106.5 30.5C106.25 30.5 106 30.25 106 29.95C106 29.2 104.95 28.3 103.15 27.45C102.25 27.1 101.5 26.6 101.5 26.4C101.5 26.15 100.95 26 100.25 26C99.55 26 99 25.75 99 25.5C99 25.2 97.15 25 94.5 25C91.85 25 90 25.2 90 25.5C90 25.75 89.45 26 88.75 26C88.05 26 87.5 26.2 87.5 26.5C87.5 26.75 87.15 27 86.75 27C86.3 27 85.5 27.45 84.9 28C84.3 28.55 83.4 29 82.9 29C82.4 29 82 29.2 82 29.45C82 29.75 81.4 30.6 80.7 31.35C80 32.1 79.05 33.35 78.6 34.1C78.15 34.9 77.6 35.5 77.4 35.5C77.2 35.5 77 35.95 77 36.5C77 37.05 76.8 37.5 76.5 37.5C76.25 37.5 76 37.95 76 38.5C76 39.05 75.8 39.5 75.5 39.5C75.25 39.5 75 40.05 75 40.7C75 41.35 74.75 42 74.45 42.1C73.75 42.35 73.8 50.2 74.5 50.4C74.75 50.5 75 51.1 75 51.75C75 52.4 75.25 53.1 75.5 53.25C75.8 53.4 76 54 76 54.55C76 55.05 76.2 55.5 76.4 55.5C76.65 55.5 77.15 56.1 77.55 56.85C77.95 57.65 78.65 58.7 79.15 59.2C79.6 59.75 80 60.35 80 60.6C80 60.8 80.65 61 81.4 61C82.45 61 83 60.65 83.45 59.6C83.85 58.85 84.3 57.85 84.55 57.4C84.8 56.9 85 55.85 85 55.05C85 54.2 85.25 53.4 85.5 53.25C85.8 53.1 86 52.15 86 51.2C86 50.25 86.25 49.5 86.5 49.5C86.8 49.5 87 49.1 87 48.55C87 46.7 89.7 42.9 91.9 41.6C93.2 40.9 95 40.8 95 41.5C95 41.75 95.4 42 95.95 42C96.45 42 97.15 42.35 97.5 42.75C98.25 43.6 98.25 51.15 97.5 51.4C97.25 51.5 97 52.15 97 52.8C97 53.45 96.8 54 96.5 54C96.25 54 96 54.55 96 55.2C96 55.9 95.8 56.6 95.5 56.75C95.2 56.9 95 57.6 95 58.3C95 58.95 94.8 59.5 94.5 59.5C94.25 59.5 94 60.05 94 60.75C94 61.45 93.8 62 93.5 62C93.25 62 93 62.55 93 63.25C93 63.95 92.8 64.5 92.5 64.5C92.25 64.5 92 65.05 92 65.75C92 66.45 91.8 67 91.5 67C91.25 67 91 67.55 91 68.25C91 68.95 90.8 69.5 90.5 69.5C90.25 69.5 90 69.95 90 70.5C90 71.05 89.8 71.5 89.5 71.5C89.25 71.5 89 72.05 89 72.75C89 73.45 88.8 74 88.5 74C88.25 74 88 74.45 88 75C88 75.55 87.8 76 87.5 76C87.25 76 87 76.45 87 76.95C87 77.5 86.8 78.1 86.5 78.25C86.25 78.4 86 79 86 79.55C86 80.05 85.8 80.5 85.5 80.5C85.25 80.5 85 80.95 85 81.5C85 82.05 84.8 82.5 84.5 82.5C84.25 82.5 84 82.95 84 83.5C84 84.05 83.8 84.5 83.5 84.5C83.25 84.5 83 84.95 83 85.5C83 86.05 82.85 86.5 82.6 86.5C82.4 86.5 81.85 87.35 81.4 88.35C80.5 90.25 78.95 93.05 78.5 93.5C78.35 93.65 77.9 94.4 77.5 95.25C77.1 96.05 76.35 97.2 75.9 97.7C75.4 98.25 75 98.9 75 99.15C75 99.7 71.95 104.2 71.4 104.4C71.2 104.5 71 104.85 71 105.2C71 105.55 70.3 106.55 69.5 107.4C68.7 108.3 68 109.2 68 109.45C68 109.7 67.1 110.75 66 111.8C64.9 112.85 64 113.9 64 114.15C64 114.7 58.5 120 57.9 120C57.65 120 56.85 120.65 56.15 121.5C55.5 122.3 54.7 123 54.45 123C54.15 123 53.5 123.45 52.9 124C52.3 124.55 51.5 125 51.15 125C50.8 125 50.5 125.2 50.5 125.5C50.5 125.75 50.05 126 49.5 126C48.95 126 48.5 126.2 48.5 126.5C48.5 126.75 47.85 127 47 127C46.2 127 45.5 127.2 45.5 127.5C45.5 127.75 44.5 128 43.25 128C42 128 40.55 128.3 40 128.6C39.2 129.1 38.8 129.1 38 128.6C37.45 128.3 36.4 128 35.7 128C34 128 31 125.75 31 124.45C31 123.95 30.8 123.5 30.5 123.5C30.2 123.5 30 122 30 120C30 118 30.2 116.5 30.5 116.5C30.8 116.5 31 115.7 31 114.75C31 113.8 31.25 113 31.5 113C31.8 113 32 112.3 32 111.5C32 110.65 32.25 110 32.5 110C32.8 110 33 109.45 33 108.75C33 108.05 33.25 107.5 33.5 107.5C33.8 107.5 34 107.05 34 106.5C34 105.95 34.25 105.5 34.5 105.5C34.8 105.5 35 105.05 35 104.5C35 103.95 35.25 103.5 35.5 103.5C35.8 103.5 36 103.05 36 102.5C36 101.95 36.25 101.5 36.5 101.5C36.8 101.5 37 101.05 37 100.5C37 99.95 37.25 99.5 37.5 99.5C37.8 99.5 38 99.05 38 98.55C38 98 38.15 97.5 38.4 97.4C38.6 97.3 40.2 94.3 42 90.75C43.8 87.15 45.4 84.15 45.6 84.1C45.85 84 46 83.5 46 82.95C46 82.45 46.25 82 46.5 82C46.8 82 47 81.7 47 81.35C47 80.45 48.2 78 48.65 78C48.85 78 49 77.55 49 77C49 76.45 49.25 76 49.5 76C49.8 76 50 75.55 50 75C50 74.45 50.25 74 50.5 74C50.8 74 51 73.7 51 73.35C51 72.45 52.2 70 52.65 70C52.85 70 53 69.55 53 69.05C53 68.5 53.25 67.9 53.5 67.75C53.8 67.6 54 67 54 66.45C54 65.95 54.25 65.5 54.5 65.5C54.8 65.5 55 65.05 55 64.5C55 63.95 55.25 63.5 55.5 63.5C55.8 63.5 56 62.95 56 62.25C56 61.55 56.25 61 56.5 61C56.8 61 57 60.55 57 60.05C57 59.5 57.25 58.9 57.5 58.75C57.8 58.6 58 58 58 57.45C58 56.95 58.25 56.5 58.5 56.5C58.8 56.5 59 56.15 59 55.75C59 55.35 59.2 54.6 59.45 54.1C59.7 53.65 60.15 52.55 60.5 51.75C60.85 50.9 61.3 49.85 61.55 49.4C61.8 48.9 62 48.05 62 47.5C62 46.95 62.25 46.5 62.5 46.5C62.8 46.5 63 45.8 63 45C63 44.15 63.25 43.5 63.5 43.5C63.8 43.5 64 42.8 64 42C64 41.15 64.25 40.5 64.5 40.5C64.8 40.5 65 39.6 65 38.5C65 37.4 65.25 36.5 65.5 36.5C65.8 36.5 66 34.4 66 31.25C66 28.1 65.8 26 65.5 26C65.25 26 65 25 65 23.8C65 22.55 64.8 21.4 64.5 21.25C64.25 21.1 64 20.3 64 19.45C64 18.65 63.8 18 63.5 18C63.25 18 63 17.45 63 16.75C63 16.05 62.8 15.5 62.5 15.5C62.25 15.5 62 15.05 62 14.5C62 13.95 61.8 13.5 61.5 13.5C61.25 13.5 61 13.15 61 12.7C61 11.8 53.55 4 52.65 4C52.3 4 52 3.75 52 3.5C52 3.2 51.55 3 51 3C50.45 3 50 2.75 50 2.5C50 2.2 49.55 2 49.05 2C48.5 2 47.9 1.75 47.75 1.5C47.6 1.2 46.55 0.999998 45.45 0.999998C44.4 0.999998 43.5 0.749998 43.5 0.499998C43.5 0.199998 41.6 -2.13087e-06 38.75 -2.13087e-06C35.9 -2.13087e-06 34 0.199998 34 0.499998Z" fill="#AF0135"/>
<path d="M315.5 40.5C315.5 40.75 314.85 41 314 41C313.2 41 312.5 41.2 312.5 41.5C312.5 41.75 312.05 42 311.5 42C310.95 42 310.5 42.2 310.5 42.5C310.5 42.75 310.15 43 309.7 43C309.3 43 308.65 43.3 308.25 43.6C307.9 43.95 306.45 45.15 305.05 46.25C303.65 47.35 302.5 48.4 302.5 48.6C302.5 48.8 301.7 49.8 300.75 50.8C299.8 51.75 299 52.85 299 53.2C299 53.55 298.55 54.3 298 54.9C297.45 55.5 297 56.3 297 56.75C297 57.15 296.8 57.5 296.5 57.5C296.25 57.5 296 57.95 296 58.5C296 59.05 295.8 59.5 295.5 59.5C295.25 59.5 295 60.05 295 60.75C295 61.45 294.8 62 294.5 62C294.25 62 294 62.55 294 63.25C294 63.95 293.8 64.5 293.5 64.5C293.25 64.5 293 65.15 293 66C293 66.8 292.8 67.5 292.5 67.5C292.25 67.5 292 68.3 292 69.25C292 70.2 291.8 71 291.5 71C291.25 71 291 71.9 291 73C291 74.1 290.8 75 290.5 75C290.25 75 290 76.1 290 77.5C290 78.85 289.8 80 289.5 80C289.2 80 289 81.5 289 83.45C289 85.4 288.8 87.1 288.5 87.25C288.2 87.45 288 90.4 288 94.55C288 98.85 287.8 101.5 287.5 101.5C287.25 101.5 287 102.25 287 103.2C287 104.15 286.8 105.1 286.5 105.25C286.25 105.4 286 106 286 106.55C286 107.05 285.85 107.5 285.6 107.5C285.4 107.5 284.95 108.15 284.6 109C283.9 110.5 281.6 112 279.9 112C278.3 112 276 110.05 276 108.7C276 108.05 275.8 107.5 275.5 107.5C275.2 107.5 275 105.45 275 102.3C275 99.35 275.2 96.9 275.5 96.75C275.8 96.6 276 95.45 276 94.25C276 93.05 276.25 91.9 276.5 91.75C276.8 91.6 277 90.35 277 88.95C277 87.6 277.25 86.5 277.5 86.5C277.8 86.5 278 85.6 278 84.5C278 83.4 278.25 82.5 278.5 82.5C278.8 82.5 279 81.35 279 80C279 78.6 279.25 77.5 279.5 77.5C279.8 77.5 280 76.5 280 75.3C280 74.05 280.25 72.9 280.5 72.75C280.8 72.6 281 71.45 281 70.2C281 69 281.25 68 281.5 68C281.8 68 282 67 282 65.75C282 64.5 282.25 63.5 282.5 63.5C282.8 63.5 283 62.5 283 61.25C283 60 283.25 59 283.5 59C283.8 59 284 58 284 56.75C284 55.5 284.25 54.5 284.55 54.5C284.85 54.5 285 53.45 284.9 51.85L284.75 49.25L281.35 49.1C278.45 48.95 277.75 49.1 276.5 50.1C275.55 50.85 275.05 51.7 275.05 52.6C275 53.4 274.8 54 274.5 54C274.25 54 274 54.65 274 55.45C274 56.3 273.8 57.1 273.5 57.25C273.25 57.4 273 58.2 273 59.05C273 59.85 272.8 60.5 272.5 60.5C272.25 60.5 272 61.15 272 62C272 62.8 271.8 63.5 271.5 63.5C271.25 63.5 271 64.3 271 65.25C271 66.2 270.8 67 270.5 67C270.25 67 270 67.65 270 68.5C270 69.3 269.8 70 269.5 70C269.25 70 269 70.65 269 71.5C269 72.3 268.8 73 268.5 73C268.25 73 268 73.65 268 74.5C268 75.3 267.8 76 267.5 76C267.25 76 267 76.65 267 77.45C267 78.3 266.8 79.1 266.5 79.25C266.25 79.4 266 80.1 266 80.8C266 81.45 265.8 82 265.5 82C265.25 82 265 82.65 265 83.45C265 84.3 264.8 85.1 264.5 85.25C264.25 85.4 264 86.1 264 86.75C264 87.4 263.8 88.1 263.5 88.25C263.25 88.4 263 89.1 263 89.8C263 90.45 262.8 91 262.5 91C262.25 91 262 91.65 262 92.5C262 93.3 261.8 94 261.5 94C261.25 94 261 94.55 261 95.25C261 95.95 260.8 96.5 260.5 96.5C260.25 96.5 260 97.15 260 98C260 98.8 259.8 99.5 259.5 99.5C259.25 99.5 259 100.05 259 100.75C259 101.45 258.8 102 258.5 102C258.25 102 258 102.3 258 102.65C258 103.55 256.8 106 256.4 106C256.15 106 256 106.35 256 106.75C256 107.15 255.8 107.5 255.5 107.5C255.25 107.5 255 107.8 255 108.15C255 109.05 252.85 111 251.9 111C251.45 111 251 111.3 250.85 111.6C250.7 112.1 250.4 112.1 249.55 111.6C249 111.3 247.95 111 247.25 111C246.55 111 246 110.75 246 110.5C246 110.2 245.65 110 245.25 110C244.85 110 244.4 109.45 244.2 108.75C244.05 108.05 243.7 107.5 243.45 107.5C243.2 107.5 243 106.95 243 106.25C243 105.55 242.8 105 242.5 105C242.2 105 242 103.6 242 101.8C242 100 242.25 98.4 242.5 98.25C242.8 98.1 243 96.7 243 95.2C243 93.7 243.25 92.5 243.5 92.5C243.8 92.5 244 91.35 244 90C244 88.6 244.25 87.5 244.5 87.5C244.8 87.5 245 86.6 245 85.5C245 84.4 245.25 83.5 245.5 83.5C245.8 83.5 246 82.6 246 81.55C246 80.45 246.25 79.4 246.5 79.25C246.8 79.1 247 78.2 247 77.25C247 76.3 247.25 75.4 247.5 75.25C247.8 75.1 248 74.2 248 73.25C248 72.3 248.25 71.4 248.5 71.25C248.8 71.1 249 70.2 249 69.25C249 68.3 249.25 67.4 249.5 67.25C249.8 67.1 250 66.15 250 65.2C250 64.25 250.25 63.5 250.5 63.5C250.8 63.5 251 62.75 251 61.8C251 60.85 251.25 59.9 251.5 59.75C251.8 59.6 252 58.65 252 57.7C252 56.75 252.25 56 252.5 56C252.8 56 253 55.2 253 54.25C253 53.3 253.25 52.5 253.5 52.5C253.8 52.5 254 51.6 254 50.5C254 49.4 254.25 48.5 254.5 48.5C254.8 48.5 255 47.7 255 46.75C255 45.8 255.25 45 255.55 45C255.85 45 256 44.2 255.9 43.1C255.75 41.3 255.7 41.25 253.65 41.1C252.35 41 251.5 41.15 251.5 41.45C251.5 41.75 250.5 42 249.25 42C248 42 247 42.2 247 42.5C247 42.75 246 43 244.75 43C243.5 43 242.5 43.2 242.5 43.5C242.5 43.75 241.5 44 240.25 44C239 44 238 44.2 238 44.5C238 44.75 237.1 45 236.05 45C234.95 45 233.9 45.2 233.75 45.5C233.6 45.75 232.9 46 232.2 46C231.1 46 231 46.2 231 48.25C231 49.5 230.8 50.5 230.5 50.5C230.25 50.5 230 51.75 230 53.25C230 54.75 229.8 56 229.5 56C229.25 56 229 57.25 229 58.75C229 60.25 228.8 61.5 228.5 61.5C228.25 61.5 228 62.75 228 64.25C228 65.75 227.8 67 227.5 67C227.25 67 227 68.25 227 69.75C227 71.25 226.8 72.5 226.5 72.5C226.25 72.5 226 73.6 226 74.95C226 76.35 225.8 77.6 225.5 77.75C225.25 77.9 225 79.15 225 80.55C225 81.9 224.8 83 224.5 83C224.25 83 224 84.2 224 85.7C224 87.2 223.8 88.6 223.5 88.75C223.25 88.9 223 90.15 223 91.55C223 92.9 222.8 94 222.5 94C222.25 94 222 95.25 222 96.75C222 98.25 221.8 99.5 221.5 99.5C221.25 99.5 221 99.9 221 100.35C221 101.15 216.25 105.5 214.15 106.7C213.75 106.9 211.9 108.65 210 110.55C208.15 112.45 206.4 114 206.1 114C205.8 114 205.45 114.3 205.35 114.6C205.2 114.95 205.05 114.5 205.05 113.6C205 112.75 205.25 112 205.5 112C205.8 112 206 111.3 206 110.5C206 109.65 206.25 109 206.5 109C206.8 109 207 108.2 207 107.25C207 106.3 207.25 105.5 207.5 105.5C207.8 105.5 208 104.7 208 103.75C208 102.8 208.25 102 208.5 102C208.8 102 209 101.3 209 100.5C209 99.65 209.25 99 209.5 99C209.8 99 210 98.2 210 97.25C210 96.3 210.25 95.5 210.5 95.5C210.8 95.5 211 94.7 211 93.75C211 92.8 211.25 92 211.5 92C211.8 92 212 91.35 212 90.55C212 89.4 211.65 88.95 210.5 88.4C209.7 88.05 209 87.6 209 87.4C209 87.15 208.65 87 208.25 87C207.85 87 207.5 86.8 207.5 86.55C207.5 85.9 205.75 85.55 204.8 86.1C204.35 86.35 204 87 204 87.5C204 88.05 203.8 88.5 203.5 88.5C203.25 88.5 203 88.95 203 89.5C203 90.05 202.8 90.5 202.5 90.5C202.25 90.5 202 90.95 202 91.5C202 92.05 201.8 92.5 201.5 92.5C201.25 92.5 201 92.95 201 93.5C201 94.05 200.8 94.5 200.5 94.5C200.25 94.5 200 94.95 200 95.45C200 96 199.85 96.5 199.65 96.6C199.4 96.65 198.7 97.8 198.05 99.1C197.4 100.45 196.65 101.5 196.4 101.5C196.2 101.5 196 101.95 196 102.5C196 103.05 195.55 103.75 195 104.1C194.45 104.45 194 105.1 194 105.6C194 106.05 193.8 106.5 193.55 106.6C193.3 106.65 192.7 107.45 192.2 108.25C191.65 109.1 190.2 110.75 188.95 111.9C186.85 113.8 186.4 114 184.05 114C182.65 114 181.5 113.75 181.5 113.5C181.5 113.2 181.25 113 180.95 113C180.25 113 179 111.75 179 111.05C179 110.75 178.8 110.5 178.5 110.5C178.25 110.5 178 109.75 178 108.85C178 107.95 177.75 106.95 177.5 106.7C177.1 106.3 177.1 105.75 177.5 104.8C177.75 104.05 178 102.2 178 100.7C178 99.2 178.25 98 178.5 98C178.8 98 179 97.2 179 96.25C179 95.3 179.25 94.5 179.5 94.5C179.8 94.5 180 94.05 180 93.5C180 92.95 180.25 92 180.6 91.35C181.8 89 182 88.5 182 87.75C182 87.35 182.25 87 182.5 87C182.8 87 183 86.65 183 86.25C183 85.5 183.95 83.5 184.55 83C184.7 82.85 185.15 82 185.55 81.1C185.95 80.25 186.4 79.5 186.6 79.5C186.85 79.5 187 79.1 187 78.6C187 78.1 187.45 77.4 188 77C188.55 76.6 189 76.05 189 75.75C189 74.4 196.5 66 197.7 66C197.9 66 198.5 65.55 199.1 65C199.7 64.45 200.7 64 201.35 64C202 64 202.5 63.75 202.5 63.5C202.5 63.2 203.65 63 205 63C206.4 63 207.5 63.2 207.5 63.5C207.5 63.75 207.75 64 208.05 64C208.85 64 209.95 65.55 210 66.6C210 67.1 210.25 67.5 210.5 67.5C210.8 67.5 211 68.25 211 69.2C211 70.55 210.55 71.3 208.5 73.2C206.5 75.1 206 75.85 206 77.15C206.05 79.2 208.45 82 210.2 82C210.9 82 211.6 82.2 211.75 82.5C211.9 82.75 212.6 83 213.3 83C213.95 83 214.5 82.75 214.5 82.5C214.5 82.2 215.05 82 215.75 82C216.45 82 217 81.85 217 81.6C217 81.4 217.5 81 218.15 80.75C218.75 80.45 219.45 79.75 219.75 79.1C220 78.5 220.4 78 220.6 78C220.85 78 221 77.65 221 77.25C221 76.85 221.25 76.5 221.5 76.5C221.8 76.5 222 76.05 222 75.5C222 74.95 222.25 74.5 222.5 74.5C222.8 74.5 223 73.8 223 73C223 72.15 223.25 71.5 223.5 71.5C223.8 71.5 224 70.35 224 69C224 67.6 224.25 66.05 224.6 65.55C225.05 64.8 225.05 64.3 224.6 63.25C224.25 62.55 224 60.75 224 59.25C224 57.75 223.8 56.5 223.5 56.5C223.25 56.5 223 55.95 223 55.25C223 54.55 222.85 54 222.6 54C222.4 54 221.95 53.25 221.55 52.35C220.2 49.3 214.6 45 212 45C211.45 45 210.9 44.75 210.75 44.5C210.55 44.2 207.75 44 203.95 44C200 44 197.5 44.2 197.5 44.5C197.5 44.75 196.85 45 196 45C195.2 45 194.5 45.2 194.5 45.5C194.5 45.75 193.95 46 193.25 46C192.55 46 192 46.15 192 46.4C192 46.6 191.25 47.1 190.4 47.45C189.5 47.85 188.2 48.7 187.5 49.35C186.8 50 185.9 50.6 185.5 50.75C184.5 51.1 177.5 58.25 176 60.5C175.3 61.45 174.4 62.7 173.9 63.2C173.4 63.75 173 64.4 173 64.6C173 64.85 172.55 65.5 172 66.1C171.45 66.7 171 67.5 171 67.85C171 68.2 170.8 68.5 170.5 68.5C170.25 68.5 170 68.95 170 69.5C170 70.05 169.8 70.5 169.5 70.5C169.25 70.5 169 70.85 169 71.25C169 71.65 168.8 72 168.5 72C168.25 72 168 72.45 168 73C168 73.55 167.85 74 167.65 74C167.2 74 166 76.45 166 77.35C166 77.7 165.8 78 165.5 78C165.25 78 165 78.55 165 79.25C165 79.95 164.8 80.5 164.5 80.5C164.25 80.5 164 80.95 164 81.5C164 82.05 163.8 82.5 163.5 82.5C163.25 82.5 163 83.05 163 83.7C163 84.4 162.8 85.1 162.5 85.25C162.25 85.4 162 86.1 162 86.8C162 87.45 161.8 88 161.5 88C161.25 88 161 88.8 161 89.75C161 90.7 160.8 91.5 160.5 91.5C160.25 91.5 160 92.3 160 93.25C160 94.2 159.8 95 159.5 95C159.25 95 159 96 159 97.25C159 98.5 158.8 99.5 158.5 99.5C158.2 99.5 158 101 158 103C158 105 157.8 106.5 157.5 106.5C157.2 106.5 157 107.8 157 109.45C157 111.1 157.25 112.6 157.5 112.75C157.8 112.9 158 114.05 158 115.3C158 116.5 158.25 117.5 158.5 117.5C158.8 117.5 159 117.85 159 118.25C159 120.05 163.6 126 165 126C165.25 126 165.5 126.2 165.5 126.5C165.5 126.75 165.95 127 166.45 127C167 127 167.6 127.2 167.75 127.5C167.9 127.75 168.5 128 169.05 128C169.55 128 170 128.2 170 128.5C170 128.75 170.55 129 171.2 129C171.9 129 172.6 129.2 172.75 129.5C172.9 129.75 173.5 130 174 130C175.25 130 177 131.9 177 133.25C177 134.5 175.55 136 174.35 136C173.9 136 173.5 136.2 173.5 136.5C173.5 136.75 173.15 137 172.75 137C172.35 137 172 137.2 172 137.5C172 137.75 171.65 138 171.25 138C170.85 138 170.5 138.2 170.5 138.45C170.5 138.75 169.6 139.45 168.5 140.05C167.4 140.7 166.5 141.35 166.5 141.55C166.5 141.8 165.2 142.85 163.65 143.9C160.1 146.35 150 157 150 158.35C150 158.55 149.3 159.45 148.5 160.35C147.65 161.25 147 162.15 147 162.4C147 162.65 146.65 163.15 146.25 163.5C145.8 163.85 145.1 164.9 144.7 165.8C144.25 166.75 143.7 167.5 143.45 167.5C143.2 167.5 143 167.95 143 168.5C143 169.05 142.8 169.5 142.5 169.5C142.25 169.5 142 169.95 142 170.5C142 171.05 141.8 171.5 141.5 171.5C141.25 171.5 141 171.95 141 172.5C141 173.05 140.8 173.5 140.5 173.5C140.25 173.5 140 173.85 140 174.25C140 174.65 139.8 175.4 139.55 175.9C139.3 176.35 138.85 177.4 138.5 178.25C138.15 179.05 137.7 180.15 137.45 180.6C137.2 181.1 137 181.95 137 182.5C137 183.05 136.8 183.5 136.5 183.5C136.25 183.5 136 184.15 136 185C136 185.8 135.8 186.5 135.5 186.5C135.25 186.5 135 187.4 135 188.5C135 189.6 134.8 190.5 134.5 190.5C134.25 190.5 134 191.6 134 192.95C134 194.35 133.8 195.6 133.5 195.75C133.2 195.95 133 198.4 133 201.55C133 204.85 133.2 207 133.5 207C133.8 207 134 207.8 134 208.75C134 209.7 134.25 210.5 134.5 210.5C134.8 210.5 135 210.85 135 211.25C135 211.65 135.3 212.5 135.65 213.15C136.6 214.85 140.95 219 141.75 219C142.15 219 142.5 219.2 142.5 219.5C142.5 219.75 143.05 220 143.75 220C144.45 220 145 220.2 145 220.5C145 220.75 145.8 221 146.75 221C147.7 221 148.5 221.2 148.5 221.5C148.5 221.8 150.4 222 153.25 222C156.1 222 158 221.8 158 221.5C158 221.2 158.8 221 159.75 221C160.7 221 161.5 220.75 161.5 220.5C161.5 220.2 162.2 220 163 220C163.85 220 164.5 219.75 164.5 219.5C164.5 219.2 164.95 219 165.45 219C166 219 166.6 218.75 166.75 218.5C166.9 218.2 167.5 218 168 218C168.5 218 169 217.85 169.1 217.6C169.2 217.4 170.4 216.7 171.75 216C173.15 215.3 174.35 214.65 174.5 214.45C174.65 214.3 175.75 213.5 177 212.65C179.45 210.95 187 203.4 187 202.65C187 202.35 187.45 201.75 188 201.25C188.55 200.75 189 200.05 189 199.65C189 199.3 189.25 199 189.5 199C189.8 199 190 198.55 190 198C190 197.45 190.25 197 190.5 197C190.8 197 191 196.65 191 196.25C191 195.85 191.25 195.5 191.5 195.5C191.8 195.5 192 194.95 192 194.25C192 193.55 192.25 193 192.5 193C192.8 193 193 192.55 193 192C193 191.45 193.25 191 193.5 191C193.8 191 194 190.3 194 189.5C194 188.65 194.25 188 194.5 188C194.8 188 195 187.35 195 186.55C195 185.7 195.25 184.9 195.5 184.75C195.8 184.6 196 183.65 196 182.7C196 181.75 196.25 181 196.5 181C196.8 181 197 179.8 197 178.3C197 176.8 197.25 175.4 197.5 175.25C197.8 175.05 198 169.75 198 161C198 152.25 197.8 146.95 197.5 146.75C197.25 146.6 197 145.1 197 143.45C197 141.8 196.8 140.5 196.5 140.5C196.25 140.5 196 139.75 196 138.85C196 137.05 195.8 137.3 215.1 118.75L219.9 114.1L220.55 116.3C220.9 117.5 221.4 118.5 221.6 118.5C221.8 118.5 222 118.85 222 119.25C222 119.65 222.25 120 222.5 120C222.8 120 223 120.3 223 120.65C223 121.2 225.1 123.45 229.75 127.85C230.4 128.5 231.3 129 231.75 129C232.15 129 232.5 129.2 232.5 129.5C232.5 129.75 233.2 130 234 130C234.85 130 235.5 130.2 235.5 130.5C235.5 130.8 237.75 131 241.25 131C244.75 131 247 130.8 247 130.5C247 130.2 247.55 130 248.2 130C248.85 130 249.5 129.8 249.6 129.6C249.7 129.35 250.85 128.45 252.15 127.55C254.9 125.65 260.35 120.2 260.8 118.9C261.1 117.85 262 117.7 262 118.7C262 120.05 266.45 124 268 124C268.55 124 269 124.2 269 124.5C269 124.75 270 125 271.2 125C272.45 125 273.6 125.2 273.75 125.5C273.9 125.75 275.15 126 276.5 126C277.85 126 279.1 125.75 279.25 125.5C279.4 125.2 280.35 125 281.3 125C282.25 125 283 124.75 283 124.5C283 124.2 283.45 124 284 124C284.55 124 285 123.75 285 123.5C285 123.2 285.45 123 286 123C286.55 123 287 122.75 287 122.5C287 122.2 287.2 122 287.5 122C287.95 122 289.25 121.05 290.75 119.6C291.15 119.3 291.65 119 291.9 119C292.15 119 292.75 118.55 293.25 118C294.2 116.95 297.5 116.55 297.5 117.5C297.5 117.75 297.95 118 298.5 118C299.05 118 299.5 118.2 299.5 118.5C299.5 118.75 299.8 119 300.15 119C300.5 119 301.3 119.45 301.9 120C302.5 120.55 303.2 121 303.5 121C303.75 121 304 121.2 304 121.5C304 121.75 304.45 122 305 122C305.55 122 306 122.2 306 122.5C306 122.75 306.45 123 306.95 123C307.5 123 308.1 123.2 308.25 123.5C308.4 123.75 309.1 124 309.8 124C310.45 124 311 124.2 311 124.5C311 124.75 311.8 125 312.75 125C313.7 125 314.5 125.2 314.5 125.5C314.5 125.75 315.5 126 316.75 126C318 126 319 126.2 319 126.5C319 126.8 321.6 127 325.75 127C329.9 127 332.5 126.8 332.5 126.5C332.5 126.2 333.3 126 334.25 126C335.2 126 336 125.75 336 125.5C336 125.2 336.55 125 337.25 125C337.95 125 338.5 124.75 338.5 124.5C338.5 124.2 338.85 124 339.25 124C340.15 124 341.8 123.1 343.2 121.85C343.75 121.4 344.4 121 344.65 121C344.9 121 346.65 119.5 348.55 117.65C350.5 115.8 352.2 114.15 352.4 114C352.6 113.85 353.05 113.15 353.45 112.4C353.85 111.65 354.55 110.55 355.1 110.05C355.6 109.5 356 108.8 356 108.5C356 108.25 356.25 108 356.5 108C356.8 108 357 107.65 357 107.25C357 106.85 357.15 106.5 357.4 106.5C357.6 106.5 358.3 105.25 359 103.75C359.7 102.25 360.4 101 360.65 101C360.85 101 361 100.55 361 100C361 99.45 361.25 99 361.5 99C361.8 99 362 98.45 362 97.75C362 97.05 362.25 96.5 362.5 96.5C362.8 96.5 363 96.05 363 95.5C363 94.95 363.25 94.5 363.5 94.5C363.8 94.5 364 93.95 364 93.25C364 92.55 364.25 92 364.5 92C364.8 92 365 91.35 365 90.55C365 89.7 365.25 88.9 365.5 88.75C366.2 88.3 366.15 85.35 365.4 84.6C365.05 84.25 364.3 84 363.65 84C363 84 362.5 83.75 362.5 83.5C362.5 83.2 361.85 83 361 83C360.2 83 359.5 82.75 359.5 82.5C359.5 82.2 358.55 82 357.35 82C355.35 82 355.15 82.15 354.5 83.75C354.1 84.7 353.65 85.5 353.4 85.5C353.2 85.5 353 85.95 353 86.5C353 87.05 352.8 87.5 352.5 87.5C352.25 87.5 352 87.85 352 88.25C352 88.65 351.8 89 351.5 89C351.25 89 351 89.25 351 89.5C351 90.45 346.75 96.5 345.9 96.8C345.4 96.95 345 97.4 345 97.75C345 98.7 340.9 103 340 103C339.55 103 339.65 102.65 340.3 101.85L341.25 100.75L340.15 101.65C339.55 102.2 339.2 102.9 339.35 103.3C339.5 103.7 339.4 104 339.15 104C338.9 104 338.25 104.4 337.7 104.85C336.2 106.2 334.6 107 333.55 107C333 107 332.5 107.25 332.4 107.55C332.15 108.25 322.35 108.25 322.1 107.5C322 107.25 321.55 107 321.05 107C320.6 107 319.75 106.6 319.2 106.1C318.65 105.65 317.55 104.85 316.75 104.4C315.15 103.5 314.4 102.3 315.7 102.8C316.15 102.95 316.5 102.85 316.5 102.55C316.5 102.25 316.85 102 317.25 102C317.65 102 318 101.75 318 101.5C318 101.2 318.35 101 318.75 101C319.15 101 319.5 100.75 319.5 100.5C319.5 100.2 319.75 100 320 100C320.6 100 322.95 97.5 323 96.9C323 96.55 323.8 95.5 325.25 93.8C325.55 93.5 326.05 92.65 326.45 91.85C326.85 91.1 327.35 90.5 327.6 90.5C327.8 90.5 328 90.15 328 89.75C328 89.35 328.25 89 328.5 89C328.8 89 329 88.65 329 88.2C329 87.7 329.3 87.5 329.75 87.65C330.15 87.85 330.6 87.7 330.8 87.4C331 87.05 330.95 87 330.6 87.2C330.2 87.45 330 87.2 330 86.55C330 85.95 330.25 85.5 330.5 85.5C330.8 85.5 331 85.05 331 84.5C331 83.95 331.25 83.5 331.5 83.5C331.8 83.5 332 83.05 332 82.5C332 81.95 332.25 81.5 332.5 81.5C332.8 81.5 333 81.05 333 80.5C333 79.95 333.25 79.5 333.5 79.5C333.8 79.5 334 78.95 334 78.25C334 77.55 334.25 77 334.5 77C334.8 77 335 76.55 335 76C335 75.45 335.25 75 335.5 75C335.8 75 336 74.3 336 73.5C336 72.65 336.25 72 336.5 72C336.8 72 337 71.2 337 70.25C337 69.3 337.25 68.5 337.5 68.5C337.8 68.5 338 67.6 338 66.5C338 65.4 338.25 64.5 338.5 64.5C338.8 64.5 339 61.65 339 57C339 52.35 338.8 49.5 338.5 49.5C338.25 49.5 338 49.2 338 48.8C338 47 334.15 42 332.7 42C332.3 42 332 41.75 332 41.5C332 41.2 331.45 41 330.75 41C330.05 41 329.5 40.75 329.5 40.5C329.5 40.2 326.85 40 322.5 40C318.15 40 315.5 40.2 315.5 40.5ZM321.05 63C323.25 64.2 324.05 69 322.5 71.9C322.3 72.4 321.7 73.65 321.2 74.75C319.75 78.1 316.05 81.95 312.75 83.45C311.9 83.8 310.85 84.3 310.4 84.55C309.35 85.05 308.75 84.3 309.3 83.1C309.5 82.65 309.85 81.1 310.05 79.75C310.3 78.35 310.6 76.4 310.8 75.35C310.95 74.35 311.3 73.35 311.55 73.2C311.8 73.05 312 72.4 312 71.75C312 71.1 312.2 70.45 312.45 70.3C312.65 70.15 313 69.4 313.2 68.65C313.65 66.5 317.7 62.5 319.4 62.5C319.75 62.5 320.5 62.75 321.05 63ZM181.2 158.55C181.15 163.7 180.8 166.3 180 168.25C179.8 168.8 179.35 170.25 179 171.5C178.65 172.75 177.9 174.75 177.3 175.95C176.75 177.2 176.25 178.3 176.25 178.45C176.25 178.6 175.4 180 174.4 181.55C171.85 185.55 169.7 187.05 166.15 187.35C163.6 187.6 163.15 187.5 162.25 186.5C161.4 185.55 161.25 184.7 161.25 180.55C161.25 175.75 161.25 175.75 163.45 172C164.7 169.95 166.5 167.25 167.45 166C170.55 162.15 180 152.9 180.65 153.15C181.05 153.3 181.25 154.85 181.2 158.55Z" fill="#AF0135"/>
<path d="M117.4 53.4C116.55 54.25 116 55.3 116 56.15C116 56.9 115.8 57.5 115.5 57.5C115.25 57.5 115 57.95 115 58.5C115 59.05 114.8 59.5 114.5 59.5C114.25 59.5 114 60.05 114 60.75C114 61.45 113.8 62 113.5 62C113.25 62 113 62.45 113 63C113 63.55 112.8 64 112.5 64C112.25 64 112 64.45 112 65C112 65.55 111.8 66 111.5 66C111.25 66 111 66.45 111 67C111 67.55 110.8 68 110.5 68C110.25 68 110 68.4 110 68.9C110 69.4 109.6 70.25 109.15 70.8C108.3 71.75 107.7 72.7 106.3 75.25C106 75.8 105.4 76.6 104.95 77C103.65 78.2 102 81.4 102 82.7C102 85.2 104.55 88 106.8 88C107.2 88 107.5 88.2 107.5 88.45C107.5 88.95 105 92.15 104.4 92.4C104.15 92.5 104 92.85 104 93.2C104 93.55 103.55 94.25 103 94.75C102.45 95.25 102 95.95 102 96.35C102 96.7 101.8 97 101.5 97C101.25 97 101 97.35 101 97.75C101 98.15 100.8 98.5 100.5 98.5C100.25 98.5 100 98.95 100 99.5C100 100.05 99.8 100.5 99.5 100.5C99.25 100.5 99 101.25 99 102.15C99 103.05 98.75 104.05 98.45 104.35C97.7 105.1 97.7 120.9 98.45 121.65C98.75 121.95 99 122.55 99 123C99 124.05 100.15 126.5 100.65 126.5C100.85 126.5 101 126.8 101 127.15C101 128.75 106.4 133 108.5 133C109.05 133 109.5 133.2 109.5 133.5C109.5 133.8 111.6 134 114.75 134C117.9 134 120 133.8 120 133.5C120 133.2 120.7 133 121.5 133C122.35 133 123 132.75 123 132.5C123 132.2 123.55 132 124.25 132C124.95 132 125.5 131.75 125.5 131.5C125.5 131.2 125.95 131 126.5 131C127.05 131 127.5 130.75 127.5 130.5C127.5 130.2 127.85 130 128.25 130C128.65 130 129 129.75 129 129.5C129 129.2 129.35 129 129.75 129C130.15 129 130.5 128.85 130.5 128.6C130.5 128.4 131.45 127.65 132.65 126.9C134.95 125.4 140.7 119.6 143.5 116C144.45 114.75 145.4 113.65 145.6 113.6C145.8 113.5 146 113.15 146 112.8C146 112.45 146.4 111.75 146.9 111.2C148 109.95 149.5 107.5 149.85 106.35C150 105.9 150.3 105.5 150.55 105.5C150.8 105.5 151 105.05 151 104.5C151 103.95 151.25 103.5 151.5 103.5C151.8 103.5 152 103.15 152 102.75C152 102.35 152.25 102 152.5 102C152.8 102 153 101.65 153 101.25C153 100.85 153.45 99.75 154 98.75C154.55 97.75 155 96.65 155 96.25C155 95.85 155.25 95.5 155.5 95.5C155.8 95.5 156 94.95 156 94.25C156 93.55 156.25 93 156.5 93C156.8 93 157 92.45 157 91.75C157 91.05 157.25 90.5 157.5 90.5C157.8 90.5 158 89.8 158 89C158 88.15 158.25 87.5 158.5 87.5C158.8 87.5 159 86.8 159 86C159 85.15 159.25 84.5 159.5 84.5C159.8 84.5 160 83.6 160 82.55C160 81.45 160.25 80.4 160.5 80.25C160.8 80.1 161 78.85 161 77.45C161 76.1 161.25 75 161.5 75C161.8 75 162 73.65 162 72C162 70.35 161.8 69 161.5 69C161.25 69 161 67.9 161 66.55C161 65.15 160.8 63.9 160.5 63.75C160.25 63.6 160 62.9 160 62.2C160 61.55 159.85 61 159.65 61C159.25 61 158 58.6 158 57.9C158 56.5 152.8 53 150.75 53C150.1 53 149.4 52.75 149.25 52.5C149.1 52.2 147.4 52 145.45 52C143.5 52 142 52.2 142 52.5C142 52.75 141 53 139.8 53C138.55 53 137.4 53.2 137.25 53.5C137.1 53.75 136.5 54 135.95 54C135.45 54 134.6 54.2 134.1 54.45C131 56.05 130.45 56.15 129.9 55.6C129.55 55.25 128.9 55 128.4 55C127.9 55 127.5 54.75 127.5 54.5C127.5 54.2 126.95 54 126.3 54C125.6 54 124.9 53.75 124.75 53.5C124.6 53.2 123.8 53 123 53C122.2 53 121.4 52.75 121.25 52.5C120.7 51.6 118.75 52.05 117.4 53.4ZM145.15 73.6C145.9 73.95 146.65 74.75 146.8 75.35C147 76 147.3 76.5 147.55 76.5C148.15 76.5 148.1 79.85 147.5 80.25C147.25 80.4 147 81.2 147 82.05C147 82.85 146.8 83.5 146.5 83.5C146.25 83.5 146 83.95 146 84.5C146 85.05 145.8 85.5 145.5 85.5C145.25 85.5 145 85.95 145 86.5C145 87.05 144.8 87.5 144.5 87.5C144.25 87.5 144 87.85 144 88.25C144 88.65 143.8 89 143.5 89C143.25 89 143 89.4 143 89.85C143 90.35 142.55 91.3 142 92C141.45 92.7 141 93.5 141 93.85C141 94.15 140.8 94.5 140.6 94.6C140.4 94.65 139.7 95.8 139.1 97.1C138.5 98.45 137.75 99.5 137.5 99.5C137.2 99.5 137 99.95 137 100.5C137 101.05 136.8 101.5 136.5 101.5C136.25 101.5 136 101.8 136 102.15C136 102.85 133.05 107.15 132.4 107.4C132.15 107.5 132 107.9 132 108.25C132 109.1 126.65 114.55 124.9 115.45C123.75 116.05 123.45 116.05 122.8 115.35C122.35 114.9 122 114.35 122 114.05C122 113.75 121.8 113.5 121.5 113.5C121.25 113.5 121 113.05 121 112.5C121 111.95 120.8 111.5 120.5 111.5C120.2 111.5 120 109.9 120 107.75C120 105.6 120.2 104 120.5 104C120.8 104 121 103.35 121 102.55C121 101.7 121.25 100.9 121.5 100.75C121.8 100.6 122 100 122 99.45C122 98.95 122.25 98.5 122.5 98.5C122.8 98.5 123 98.2 123 97.85C123 97.5 123.45 96.7 124 96.1C124.55 95.5 125 94.7 125 94.25C125 93.85 125.25 93.5 125.5 93.5C125.8 93.5 126 93.05 126 92.5C126 91.95 126.25 91.5 126.5 91.5C126.8 91.5 127 91.15 127 90.75C127 90.35 127.15 90 127.4 90C127.6 90 128.3 88.75 129 87.25C129.7 85.75 130.4 84.5 130.65 84.5C130.85 84.5 131 84.15 131 83.75C131 83.35 131.25 83 131.5 83C131.8 83 132 82.65 132 82.25C132 81.85 132.25 81.5 132.5 81.5C132.8 81.5 133 81.2 133 80.8C133 79.95 138.15 74.75 139.95 73.8C141.65 72.9 143.45 72.85 145.15 73.6Z" fill="#AF0135"/>
<path d="M240 140.5C240 140.75 239.45 141 238.75 141C238.05 141 237.5 141.2 237.5 141.5C237.5 141.75 237.2 142 236.9 142C236.15 142.05 232.5 145.4 231.65 146.95C231.3 147.5 231 148.35 231 148.75C231 149.15 230.8 149.5 230.5 149.5C230.25 149.5 230 150.4 230 151.5C230 152.6 229.8 153.5 229.5 153.5C229.2 153.5 229 154.8 229 156.45C229 158.1 229.25 159.6 229.5 159.75C229.8 159.9 230 160.95 230 162.05C230 163.1 230.25 164 230.5 164C230.8 164 231 164.55 231 165.25C231 165.95 231.25 166.5 231.5 166.5C231.8 166.5 232 166.9 232 167.4C232 167.9 232.45 168.6 233 169C233.55 169.4 234 169.9 234 170.15C234 170.95 235.4 172 236.45 172C237.05 172 237.5 172.2 237.5 172.5C237.5 172.75 238.2 173 239 173C239.85 173 240.5 173.2 240.5 173.5C240.5 173.8 242.15 174 244.45 174C246.65 174 248.6 173.75 248.75 173.5C248.9 173.2 249.6 173 250.3 173C250.95 173 251.5 172.75 251.5 172.5C251.5 172.2 251.8 172 252.15 172C253 172 256.55 168.25 257.35 166.5C259.05 162.85 258.6 162 254.95 162C253.2 162 253 162.15 253 163.25C253 163.95 252.8 164.5 252.5 164.5C252.25 164.5 252 164.85 252 165.25C252 166.2 250.45 168 249.65 168C249.3 168 249 168.2 249 168.5C249 168.8 247.25 169 244.75 169C240.5 169 239.65 168.7 237.8 166.6C237.5 166.25 236.95 165.65 236.65 165.25C236.3 164.9 236 164.25 236 163.85C236 163.4 235.75 163 235.45 162.9C235.15 162.8 234.95 160.6 234.95 157.05C234.95 153.7 235.15 151.15 235.45 150.85C235.75 150.55 236 150 236 149.6C236 148.6 239.7 145 240.7 145C241.15 145 242.05 144.7 242.65 144.3C244 143.4 247.9 144 249.7 145.35C251.25 146.5 253 149.1 253 150.15C253 151.1 255.2 151.35 255.75 150.5C255.9 150.2 256.5 150 257.05 150C257.75 150 258 149.65 258 148.75C258 148.05 257.8 147.5 257.5 147.5C257.25 147.5 257 147.05 257 146.45C257 145.8 257.2 145.55 257.6 145.8C257.95 146 258 145.95 257.8 145.55C257.6 145.25 257.2 145.1 256.95 145.25C256.7 145.4 255.8 144.75 254.95 143.8C254.1 142.8 253.1 142 252.7 142C252.3 142 252 141.75 252 141.5C252 141.2 251.55 141 251 141C250.45 141 250 140.75 250 140.5C250 140.2 248 140 245 140C242 140 240 140.2 240 140.5Z" fill="#AF0135"/>
<path d="M268 149.5C268 149.75 267.7 150 267.35 150C266.95 150 265.6 151.1 264.35 152.45C262.6 154.3 262 155.3 262 156.45C262 157.3 261.8 158 261.5 158C261.2 158 261 159.35 261 161C261 162.65 261.2 164 261.5 164C261.8 164 262 164.7 262 165.5C262 166.35 262.3 167.5 262.65 168.15C263.75 170.15 266.85 173 267.9 173C268.5 173 269.1 173.2 269.25 173.5C269.4 173.75 271.1 174 273.05 174C275 174 276.5 173.8 276.5 173.5C276.5 173.2 276.85 173 277.25 173C278.45 173 283 168.3 283 167.1C283 166.5 283.25 166 283.5 166C283.8 166 284 164.1 284 161.25C284 158.4 283.8 156.5 283.5 156.5C283.25 156.5 283 155.95 283 155.25C283 154.55 282.8 154 282.5 154C282.25 154 282 153.65 282 153.2C282 152.75 282.25 152.6 282.6 152.8C282.95 153 283 152.95 282.8 152.6C282.6 152.3 282.15 152.15 281.8 152.3C281.45 152.45 281 152.2 280.85 151.8C280.65 151.35 280.2 151 279.75 151C279.35 151 279 150.85 279 150.6C279 150.4 278.4 149.95 277.65 149.6C276.05 148.9 268 148.75 268 149.5ZM276.7 154.3C277.4 155.05 278 155.95 278 156.3C278 156.7 278.25 157 278.5 157C278.8 157 279 158.75 279 161.25C279 163.75 278.8 165.5 278.5 165.5C278.25 165.5 278 165.8 278 166.15C278 167.2 274.85 169.85 273.15 170.2C272.1 170.45 271.4 170.3 270.85 169.8C270.4 169.35 269.9 169 269.7 169C268.8 169 267 166.75 267 165.65C267 165 266.8 164.5 266.5 164.5C266.2 164.5 266 163.15 266 161.5C266 159.85 266.2 158.5 266.5 158.5C266.8 158.5 267 157.9 267 157.2C267 156.5 267.6 155.3 268.4 154.5C269.55 153.25 270.15 153.05 272.55 153C274.95 153 275.55 153.2 276.7 154.3Z" fill="#AF0135"/>
<path d="M288 160.95V173H289.7C293.1 173 293 173.25 293 164.2C293 159.7 293.2 156 293.45 156C293.7 156 294 155.55 294.15 155C294.35 154.15 294.85 154 297.15 154C300.35 154 301.15 153.35 300.9 150.9C300.75 149.25 300.75 149.25 297.8 149.1C295.05 148.95 294.8 149.05 293.55 150.55L292.25 152.15L292 150.7C291.8 149.45 291.5 149.25 289.85 149.1L288 148.95V160.95Z" fill="#AF0135"/>
<path d="M303 165.4V181.9L304.45 182.1C305.25 182.2 306.35 182.15 306.95 181.9C307.9 181.55 308 181.15 308 176.75C308 173.9 308.2 172 308.5 172C308.8 172 309 172.15 309 172.35C309 172.6 309.6 173.05 310.35 173.35C311.95 174.1 316.5 174.2 316.5 173.5C316.5 173.2 316.9 173 317.4 173C318.45 172.95 323 168.4 323 167.35C323 166.9 323.25 166.4 323.5 166.25C323.8 166.1 324 163.75 324 160.95C324 158 323.8 156 323.5 156C323.25 156 323 155.55 323 155C323 153.8 319.7 150 318.65 150C318.3 150 318 149.75 318 149.5C318 149.2 316.4 149 314.2 149C310.75 149 310.25 149.1 309.2 150.3C307.95 151.6 306.9 151.5 307.1 150.1C307.2 149.45 306.8 149.2 305.15 149.1L303 148.95V165.4ZM317.7 154.9C318.85 156.6 319 157.25 319 161.15C319 165.3 318.65 166.75 317.15 168.35C316.85 168.7 316.45 169 316.25 169C316.05 169 315.6 169.35 315.2 169.75C314.75 170.15 314 170.5 313.45 170.5C312.2 170.5 309 168.1 309 167.2C309 166.8 308.8 166.5 308.5 166.5C308.2 166.5 308 164.5 308 161.5C308 158.5 308.2 156.5 308.5 156.5C308.8 156.5 309 156.15 309 155.7C309 154.2 311.1 153.05 313.8 153C316.2 153 316.45 153.1 317.7 154.9Z" fill="#AF0135"/>
<path d="M329.6 168.6C329.25 168.95 329 169.8 329 170.6C329 172.3 330.35 173.1 332.9 172.9C334.75 172.75 334.75 172.7 334.9 170.35L335.05 168H332.65C331.3 168 329.95 168.25 329.6 168.6Z" fill="#AF0135"/>
</svg>
